<svg width="29" height="15" viewBox="0 0 29 15" fill="none" xmlns="http://www.w3.org/2000/svg">
<path d="M0.9375 15V0.454545H7.21591C8.29545 0.454545 9.24006 0.667613 10.0497 1.09375C10.8594 1.51989 11.4891 2.11884 11.9389 2.89062C12.3887 3.66241 12.6136 4.56439 12.6136 5.59659C12.6136 6.63826 12.3816 7.54025 11.9176 8.30256C11.4583 9.06487 10.812 9.65199 9.97869 10.0639C9.15009 10.4759 8.18182 10.6818 7.07386 10.6818H3.32386V7.61364H6.27841C6.74242 7.61364 7.13778 7.53314 7.46449 7.37216C7.79593 7.20644 8.04924 6.97206 8.22443 6.66903C8.40436 6.366 8.49432 6.00852 8.49432 5.59659C8.49432 5.17992 8.40436 4.82481 8.22443 4.53125C8.04924 4.23295 7.79593 4.00568 7.46449 3.84943C7.13778 3.68845 6.74242 3.60795 6.27841 3.60795H4.88636V15H0.9375ZM15.0625 15V0.454545H19.0114V6.33523H19.2102L23.5852 0.454545H28.1875L23.2727 6.93182L28.3011 15H23.5852L20.3182 9.54545L19.0114 11.25V15H15.0625Z" fill="url(#paint0_linear_420_362)"/>
<defs>
<linearGradient id="paint0_linear_420_362" x1="0" y1="8" x2="29" y2="8" gradientUnits="userSpaceOnUse">
<stop stop-color="#FF9E2B"/>
<stop offset="0.479167" stop-color="#FF9E2B" stop-opacity="0.54"/>
<stop offset="1" stop-color="#FF9E2B" stop-opacity="0.74"/>
</linearGradient>
</defs>
</svg>
